<svg xmlns="http://www.w3.org/2000/svg" viewBox="0 0 180 180" role="img" aria-labelledby="t"><title id="t">AERION</title><defs><linearGradient id="bg" x2="1" y2="1"><stop stop-color="#081b37"/><stop offset=".55" stop-color="#070b1d"/><stop offset="1" stop-color="#1a103e"/></linearGradient><linearGradient id="a" x1="0" y1="0" x2="1" y2="1"><stop stop-color="#bcffff"/><stop offset=".33" stop-color="#42eaf8"/><stop offset=".69" stop-color="#4189ff"/><stop offset="1" stop-color="#ae74ff"/></linearGradient><filter id="glow" x="-60%" y="-60%" width="220%" height="220%"><feGaussianBlur stdDeviation="5"/></filter></defs><rect width="180" height="180" rx="38" fill="url(#bg)"/><rect x="4" y="4" width="172" height="172" rx="36" fill="none" stroke="#4995f9" stroke-opacity=".56" stroke-width="2"/><path d="M42 140 91 31l17 1 34 109-24-15-22-67-26 61z" fill="#42a8ff" opacity=".4" filter="url(#glow)"/><path d="M31 141 85 27 104 20 80 81 61 125z" fill="url(#a)"/><path d="M104 20 149 142 117 125 92 65 80 81z" fill="url(#a)"/><path d="M66 103 101 88l29 20-32-7-45 28z" fill="#8bf6ff"/><path d="M40 153h99" stroke="#63dbff" stroke-opacity=".3" stroke-width="1"/></svg>