<svg xmlns="http://www.w3.org/2000/svg" viewBox="0 0 700 320" preserveAspectRatio="xMidYMid slice" role="img" aria-label="Paysage stylisé au coucher du soleil dans des tons bleu et violet"><defs><linearGradient id="sky" x1="0" y1="0" x2="0" y2="1"><stop stop-color="#091a48"/><stop offset=".37" stop-color="#403c86"/><stop offset=".65" stop-color="#b34c91"/><stop offset=".79" stop-color="#f69a7b"/><stop offset="1" stop-color="#18275b"/></linearGradient><radialGradient id="sun"><stop stop-color="#fff9e8"/><stop offset=".19" stop-color="#ffdabb" stop-opacity=".98"/><stop offset=".52" stop-color="#ffa680" stop-opacity=".6"/><stop offset="1" stop-color="#f477a2" stop-opacity="0"/></radialGradient><linearGradient id="water" x1="0" y1="0" x2="0" y2="1"><stop stop-color="#62377d"/><stop offset=".41" stop-color="#162653"/><stop offset="1" stop-color="#091735"/></linearGradient></defs><rect width="700" height="320" fill="url(#sky)"/><path d="M0 98q98-20 191 8T370 84 500 99 700 90" fill="none" stroke="#d5a7dc" stroke-opacity=".2" stroke-width="3"/><path d="M0 135Q90 120 153 136T320 132 520 140 700 130" fill="none" stroke="#efabd1" stroke-opacity=".17" stroke-width="3"/><ellipse cx="467" cy="211" rx="126" ry="105" fill="url(#sun)"/><circle cx="467" cy="211" r="17" fill="#fff5d9"/><path d="M0 231 84 207 143 224 215 194 283 219 343 201 411 225 487 208 545 220 632 195 700 218V320H0Z" fill="#30315b"/><path d="M0 240 93 225 177 251 271 226 345 253 440 220 527 251 640 223 700 239V320H0Z" fill="#1a2956"/><path d="M0 256H700V320H0Z" fill="url(#water)"/><ellipse cx="467" cy="264" rx="118" ry="2" fill="#ffb0b2" opacity=".64"/><ellipse cx="467" cy="273" rx="77" ry="2" fill="#d18fba" opacity=".58"/><ellipse cx="467" cy="282" rx="53" ry="1.5" fill="#e4a4c6" opacity=".45"/><path d="M0 302q140-7 270 1t220-2 210 5" fill="none" stroke="#5465a6" stroke-width="1.5" opacity=".54"/></svg>